# xmcd
#
# Track frame offsets: 
#        150
#        21600
#        43140
#        62670
#        87840
#        106905
#        128522
#        145677
#        163272
#
# Disc length: 2405 seconds
#
# Revision: 12
# Processed by: cddbd v1.5.2PL0 Copyright (c) Steve Scherf et al.
# Submitted via: ExactAudioCopyFreeDBPlugin 1.0
#
DISCID=77096309
DTITLE=松任谷由実 - DA・DI・DA
DYEAR=1985
DGENRE=J-Pop
TTITLE0=もう愛は始まらない
TTITLE1=2人のストリート
TTITLE2=BABYLON
TTITLE3=SUGAR TOWNはさよならの町
TTITLE4=メトロポリスの片隅で
TTITLE5=月夜のロケット花火
TTITLE6=シンデレラ・エクスプレス
TTITLE7=青春のリグレット
TTITLE8=たとえあなたが去って行っても
EXTD=
EXTT0=
EXTT1=
EXTT2=
EXTT3=
EXTT4=
EXTT5=
EXTT6=
EXTT7=
EXTT8=
PLAYORDER=
